<svg width="0" height="0" class="hidden">
  <symbol fill="none" xmlns="http://www.w3.org/2000/svg" viewBox="0 0 24 24" id="message">
    <path d="M3 7.2C3 6.07989 3 5.51984 3.21799 5.09202C3.40973 4.71569 3.71569 4.40973 4.09202 4.21799C4.51984 4 5.0799 4 6.2 4H17.8C18.9201 4 19.4802 4 19.908 4.21799C20.2843 4.40973 20.5903 4.71569 20.782 5.09202C21 5.51984 21 6.0799 21 7.2V20L17.6757 18.3378C17.4237 18.2118 17.2977 18.1488 17.1656 18.1044C17.0484 18.065 16.9277 18.0365 16.8052 18.0193C16.6672 18 16.5263 18 16.2446 18H6.2C5.07989 18 4.51984 18 4.09202 17.782C3.71569 17.5903 3.40973 17.2843 3.21799 16.908C3 16.4802 3 15.9201 3 14.8V7.2Z" stroke="currentColor" stroke-width="2" stroke-linecap="round" stroke-linejoin="round"></path>
  </symbol>
  <svg width="0" height="0" class="hidden">
  <symbol fill="currentColor" id="logo" xmlns="http://www.w3.org/2000/svg" viewBox="0 0 24 24">
    <defs></defs>
    <circle cx="12" cy="4.34" r="2.86"></circle>
    <circle cx="19.64" cy="16.75" r="2.86"></circle>
    <circle cx="4.36" cy="16.75" r="2.86"></circle>
    <path d="M6,19.09a8.59,8.59,0,0,0,12,0"></path>
    <path d="M14.82,4.82a8.57,8.57,0,0,1,5.77,8.11,6.71,6.71,0,0,1-.08,1.1"></path>
    <path d="M3.49,14a6.71,6.71,0,0,1-.08-1.1A8.57,8.57,0,0,1,9.18,4.82"></path>
  </symbol>
</svg>
  <symbol fill="none" xmlns="http://www.w3.org/2000/svg" viewBox="0 0 24 24" id="question">
    <g id="SVGRepo_bgCarrier" stroke-width="0"></g>
    <g id="SVGRepo_tracerCarrier" stroke-linecap="round" stroke-linejoin="round"></g>
    <g id="SVGRepo_iconCarrier">
      <path fill-rule="evenodd" clip-rule="evenodd" d="M22 12C22 17.5228 17.5228 22 12 22C6.47715 22 2 17.5228 2 12C2 6.47715 6.47715 2 12 2C17.5228 2 22 6.47715 22 12ZM12 7.75C11.3787 7.75 10.875 8.25368 10.875 8.875C10.875 9.28921 10.5392 9.625 10.125 9.625C9.71079 9.625 9.375 9.28921 9.375 8.875C9.375 7.42525 10.5503 6.25 12 6.25C13.4497 6.25 14.625 7.42525 14.625 8.875C14.625 9.58584 14.3415 10.232 13.883 10.704C13.7907 10.7989 13.7027 10.8869 13.6187 10.9708C13.4029 11.1864 13.2138 11.3753 13.0479 11.5885C12.8289 11.8699 12.75 12.0768 12.75 12.25V13C12.75 13.4142 12.4142 13.75 12 13.75C11.5858 13.75 11.25 13.4142 11.25 13V12.25C11.25 11.5948 11.555 11.0644 11.8642 10.6672C12.0929 10.3733 12.3804 10.0863 12.6138 9.85346C12.6842 9.78321 12.7496 9.71789 12.807 9.65877C13.0046 9.45543 13.125 9.18004 13.125 8.875C13.125 8.25368 12.6213 7.75 12 7.75ZM12 17C12.5523 17 13 16.5523 13 16C13 15.4477 12.5523 15 12 15C11.4477 15 11 15.4477 11 16C11 16.5523 11.4477 17 12 17Z" fill="currentColor"></path>
    </g>
  </symbol>
  <symbol fill="none" xmlns="http://www.w3.org/2000/svg" viewBox="0 0 24 24" id="settings">
    <g id="SVGRepo_bgCarrier" stroke-width="0"></g>
    <g id="SVGRepo_tracerCarrier" stroke-linecap="round" stroke-linejoin="round"></g>
    <g id="SVGRepo_iconCarrier">
      <path fill-rule="evenodd" clip-rule="evenodd" d="M14.2788 2.15224C13.9085 2 13.439 2 12.5 2C11.561 2 11.0915 2 10.7212 2.15224C10.2274 2.35523 9.83509 2.74458 9.63056 3.23463C9.53719 3.45834 9.50065 3.7185 9.48635 4.09799C9.46534 4.65568 9.17716 5.17189 8.69017 5.45093C8.20318 5.72996 7.60864 5.71954 7.11149 5.45876C6.77318 5.2813 6.52789 5.18262 6.28599 5.15102C5.75609 5.08178 5.22018 5.22429 4.79616 5.5472C4.47814 5.78938 4.24339 6.1929 3.7739 6.99993C3.30441 7.80697 3.06967 8.21048 3.01735 8.60491C2.94758 9.1308 3.09118 9.66266 3.41655 10.0835C3.56506 10.2756 3.77377 10.437 4.0977 10.639C4.57391 10.936 4.88032 11.4419 4.88029 12C4.88026 12.5581 4.57386 13.0639 4.0977 13.3608C3.77372 13.5629 3.56497 13.7244 3.41645 13.9165C3.09108 14.3373 2.94749 14.8691 3.01725 15.395C3.06957 15.7894 3.30432 16.193 3.7738 17C4.24329 17.807 4.47804 18.2106 4.79606 18.4527C5.22008 18.7756 5.75599 18.9181 6.28589 18.8489C6.52778 18.8173 6.77305 18.7186 7.11133 18.5412C7.60852 18.2804 8.2031 18.27 8.69012 18.549C9.17714 18.8281 9.46533 19.3443 9.48635 19.9021C9.50065 20.2815 9.53719 20.5417 9.63056 20.7654C9.83509 21.2554 10.2274 21.6448 10.7212 21.8478C11.0915 22 11.561 22 12.5 22C13.439 22 13.9085 22 14.2788 21.8478C14.7726 21.6448 15.1649 21.2554 15.3694 20.7654C15.4628 20.5417 15.4994 20.2815 15.5137 19.902C15.5347 19.3443 15.8228 18.8281 16.3098 18.549C16.7968 18.2699 17.3914 18.2804 17.8886 18.5412C18.2269 18.7186 18.4721 18.8172 18.714 18.8488C19.2439 18.9181 19.7798 18.7756 20.2038 18.4527C20.5219 18.2105 20.7566 17.807 21.2261 16.9999C21.6956 16.1929 21.9303 15.7894 21.9827 15.395C22.0524 14.8691 21.9088 14.3372 21.5835 13.9164C21.4349 13.7243 21.2262 13.5628 20.9022 13.3608C20.4261 13.0639 20.1197 12.558 20.1197 11.9999C20.1197 11.4418 20.4261 10.9361 20.9022 10.6392C21.2263 10.4371 21.435 10.2757 21.5836 10.0835C21.9089 9.66273 22.0525 9.13087 21.9828 8.60497C21.9304 8.21055 21.6957 7.80703 21.2262 7C20.7567 6.19297 20.522 5.78945 20.2039 5.54727C19.7799 5.22436 19.244 5.08185 18.7141 5.15109C18.4722 5.18269 18.2269 5.28136 17.8887 5.4588C17.3915 5.71959 16.7969 5.73002 16.3099 5.45096C15.8229 5.17191 15.5347 4.65566 15.5136 4.09794C15.4993 3.71848 15.4628 3.45833 15.3694 3.23463C15.1649 2.74458 14.7726 2.35523 14.2788 2.15224ZM12.5 15C14.1695 15 15.5228 13.6569 15.5228 12C15.5228 10.3431 14.1695 9 12.5 9C10.8305 9 9.47716 10.3431 9.47716 12C9.47716 13.6569 10.8305 15 12.5 15Z" fill="currentColor"></path>
    </g>
  </symbol>
  <symbol fill="none" xmlns="http://www.w3.org/2000/svg" viewBox="0 0 24 24" id="people">
    <path d="M17.5291 7.77C17.4591 7.76 17.3891 7.76 17.3191 7.77C15.7691 7.72 14.5391 6.45 14.5391 4.89C14.5391 3.3 15.8291 2 17.4291 2C19.0191 2 20.3191 3.29 20.3191 4.89C20.3091 6.45 19.0791 7.72 17.5291 7.77Z" fill="currentColor"></path>
    <path d="M20.7916 14.7004C19.6716 15.4504 18.1016 15.7304 16.6516 15.5404C17.0316 14.7204 17.2316 13.8104 17.2416 12.8504C17.2416 11.8504 17.0216 10.9004 16.6016 10.0704C18.0816 9.8704 19.6516 10.1504 20.7816 10.9004C22.3616 11.9404 22.3616 13.6504 20.7916 14.7004Z" fill="currentColor"></path>
    <path d="M6.44016 7.77C6.51016 7.76 6.58016 7.76 6.65016 7.77C8.20016 7.72 9.43016 6.45 9.43016 4.89C9.43016 3.29 8.14016 2 6.54016 2C4.95016 2 3.66016 3.29 3.66016 4.89C3.66016 6.45 4.89016 7.72 6.44016 7.77Z" fill="currentColor"></path>
    <path d="M6.55109 12.8506C6.55109 13.8206 6.76109 14.7406 7.14109 15.5706C5.73109 15.7206 4.26109 15.4206 3.18109 14.7106C1.60109 13.6606 1.60109 11.9506 3.18109 10.9006C4.25109 10.1806 5.76109 9.89059 7.18109 10.0506C6.77109 10.8906 6.55109 11.8406 6.55109 12.8506Z" fill="currentColor"></path>
    <path d="M12.1208 15.87C12.0408 15.86 11.9508 15.86 11.8608 15.87C10.0208 15.81 8.55078 14.3 8.55078 12.44C8.56078 10.54 10.0908 9 12.0008 9C13.9008 9 15.4408 10.54 15.4408 12.44C15.4308 14.3 13.9708 15.81 12.1208 15.87Z" fill="currentColor"></path>
    <path d="M8.87078 17.9406C7.36078 18.9506 7.36078 20.6106 8.87078 21.6106C10.5908 22.7606 13.4108 22.7606 15.1308 21.6106C16.6408 20.6006 16.6408 18.9406 15.1308 17.9406C13.4208 16.7906 10.6008 16.7906 8.87078 17.9406Z" fill="currentColor"></path>
  </symbol>
  <symbol fill="none" xmlns="http://www.w3.org/2000/svg" viewBox="0 0 24 24" id="shield">
    <g id="SVGRepo_bgCarrier" stroke-width="0"></g>
    <g id="SVGRepo_tracerCarrier" stroke-linecap="round" stroke-linejoin="round"></g>
    <g id="SVGRepo_iconCarrier">
      <path fill-rule="evenodd" clip-rule="evenodd" d="M3.37752 5.08241C3 5.62028 3 7.21907 3 10.4167V11.9914C3 17.6294 7.23896 20.3655 9.89856 21.5273C10.62 21.8424 10.9807 22 12 22C13.0193 22 13.38 21.8424 14.1014 21.5273C16.761 20.3655 21 17.6294 21 11.9914V10.4167C21 7.21907 21 5.62028 20.6225 5.08241C20.245 4.54454 18.7417 4.02996 15.7351 3.00079L15.1623 2.80472C13.595 2.26824 12.8114 2 12 2C11.1886 2 10.405 2.26824 8.83772 2.80472L8.26491 3.00079C5.25832 4.02996 3.75503 4.54454 3.37752 5.08241ZM15.0595 10.4995C15.3353 10.1905 15.3085 9.71642 14.9995 9.44055C14.6905 9.16467 14.2164 9.19151 13.9405 9.50049L10.9286 12.8739L10.0595 11.9005C9.78358 11.5915 9.30947 11.5647 9.00049 11.8405C8.69151 12.1164 8.66467 12.5905 8.94055 12.8995L10.3691 14.4995C10.5114 14.6589 10.7149 14.75 10.9286 14.75C11.1422 14.75 11.3457 14.6589 11.488 14.4995L15.0595 10.4995Z" fill="currentColor"></path>
    </g>
  </symbol>
  <symbol fill="none" xmlns="http://www.w3.org/2000/svg" viewBox="0 0 24 24" id="task">
    <path d="M15 19L17 21L21 17M13 3H8.2C7.0799 3 6.51984 3 6.09202 3.21799C5.71569 3.40973 5.40973 3.71569 5.21799 4.09202C5 4.51984 5 5.0799 5 6.2V17.8C5 18.9201 5 19.4802 5.21799 19.908C5.40973 20.2843 5.71569 20.5903 6.09202 20.782C6.51984 21 7.0799 21 8.2 21H11.5M13 3L19 9M13 3V7.4C13 7.96005 13 8.24008 13.109 8.45399C13.2049 8.64215 13.3578 8.79513 13.546 8.89101C13.7599 9 14.0399 9 14.6 9H19M19 9V13.4M9 17H11.5M9 13H15M9 9H10" stroke="currentColor" stroke-width="2" stroke-linecap="round" stroke-linejoin="round"></path>
  </symbol>
  <symbol fill="none" xmlns="http://www.w3.org/2000/svg" viewBox="0 0 24 24" id="clock">
    <path d="M12 7V12L14.5 10.5M21 12C21 16.9706 16.9706 21 12 21C7.02944 21 3 16.9706 3 12C3 7.02944 7.02944 3 12 3C16.9706 3 21 7.02944 21 12Z" stroke="currentColor" stroke-width="2" stroke-linecap="round" stroke-linejoin="round"></path>
  </symbol>
  <symbol version="1.0" id="house" xmlns="http://www.w3.org/2000/svg" xmlns:xlink="http://www.w3.org/1999/xlink" enable-background="new 0 0 64 64" xml:space="preserve" viewBox="0 0 64 64">
    <path fill="currentColor" d="M62.79,29.172l-28-28C34.009,0.391,32.985,0,31.962,0s-2.047,0.391-2.828,1.172l-28,28
	c-1.562,1.566-1.484,4.016,0.078,5.578c1.566,1.57,3.855,1.801,5.422,0.234L8,33.617V60c0,2.211,1.789,4,4,4h16V48h8v16h16
	c2.211,0,4-1.789,4-4V33.695l1.195,1.195c1.562,1.562,3.949,1.422,5.516-0.141C64.274,33.188,64.356,30.734,62.79,29.172z"></path>
  </symbol>
  <symbol fill="none" xmlns="http://www.w3.org/2000/svg" viewBox="0 0 24 24" id="id">
    <path fill-rule="evenodd" clip-rule="evenodd" d="M3 5C2.44772 5 2 5.44771 2 6V18C2 18.5523 2.44772 19 3 19H21C21.5523 19 22 18.5523 22 18V6C22 5.44772 21.5523 5 21 5H3ZM0 6C0 4.34315 1.34314 3 3 3H21C22.6569 3 24 4.34315 24 6V18C24 19.6569 22.6569 21 21 21H3C1.34315 21 0 19.6569 0 18V6ZM6 10.5C6 9.67157 6.67157 9 7.5 9C8.32843 9 9 9.67157 9 10.5C9 11.3284 8.32843 12 7.5 12C6.67157 12 6 11.3284 6 10.5ZM10.1756 12.7565C10.69 12.1472 11 11.3598 11 10.5C11 8.567 9.433 7 7.5 7C5.567 7 4 8.567 4 10.5C4 11.3598 4.31002 12.1472 4.82438 12.7565C3.68235 13.4994 3 14.7069 3 16C3 16.5523 3.44772 17 4 17C4.55228 17 5 16.5523 5 16C5 15.1145 5.80048 14 7.5 14C9.19952 14 10 15.1145 10 16C10 16.5523 10.4477 17 11 17C11.5523 17 12 16.5523 12 16C12 14.7069 11.3177 13.4994 10.1756 12.7565ZM13 8C12.4477 8 12 8.44772 12 9C12 9.55228 12.4477 10 13 10H19C19.5523 10 20 9.55228 20 9C20 8.44772 19.5523 8 19 8H13ZM14 12C13.4477 12 13 12.4477 13 13C13 13.5523 13.4477 14 14 14H18C18.5523 14 19 13.5523 19 13C19 12.4477 18.5523 12 18 12H14Z" fill="currentColor"></path>
  </symbol>
</svg>